<svg width="1200" height="620" viewBox="0 0 1200 620" fill="none" xmlns="http://www.w3.org/2000/svg">
  <rect width="1200" height="620" rx="28" fill="#0F172A"/>
  <text x="60" y="70" fill="#F8FAFC" font-family="Inter, Arial" font-size="34" font-weight="700">AWS Linux Monitoring &amp; Auto-Recovery System</text>
  <text x="60" y="112" fill="#CBD5E1" font-family="Inter, Arial" font-size="18">High-level architecture used in the portfolio project</text>
  <defs><filter id="shadow" x="-20%" y="-20%" width="140%" height="140%"><feDropShadow dx="0" dy="18" stdDeviation="18" flood-color="#000" flood-opacity="0.25"/></filter></defs>
  <g filter="url(#shadow)">
    <rect x="60" y="170" width="250" height="130" rx="20" fill="#111827" stroke="#38BDF8" stroke-width="2"/>
    <text x="88" y="218" fill="#38BDF8" font-family="Inter, Arial" font-size="20" font-weight="700">AWS EC2</text>
    <text x="88" y="254" fill="#F8FAFC" font-family="Inter, Arial" font-size="18">Ubuntu Server</text>
    <text x="88" y="280" fill="#CBD5E1" font-family="Inter, Arial" font-size="15">SSH + Security Groups</text>
  </g>
  <path d="M320 235 H430" stroke="#38BDF8" stroke-width="4" stroke-linecap="round"/>
  <path d="M420 225 L440 235 L420 245" stroke="#38BDF8" stroke-width="4" stroke-linecap="round" stroke-linejoin="round"/>
  <g filter="url(#shadow)">
    <rect x="450" y="170" width="250" height="130" rx="20" fill="#111827" stroke="#22C55E" stroke-width="2"/>
    <text x="478" y="218" fill="#22C55E" font-family="Inter, Arial" font-size="20" font-weight="700">Nginx</text>
    <text x="478" y="254" fill="#F8FAFC" font-family="Inter, Arial" font-size="18">Web service</text>
    <text x="478" y="280" fill="#CBD5E1" font-family="Inter, Arial" font-size="15">HTTP response validation</text>
  </g>
  <path d="M710 235 H820" stroke="#38BDF8" stroke-width="4" stroke-linecap="round"/>
  <path d="M810 225 L830 235 L810 245" stroke="#38BDF8" stroke-width="4" stroke-linecap="round" stroke-linejoin="round"/>
  <g filter="url(#shadow)">
    <rect x="840" y="170" width="300" height="130" rx="20" fill="#111827" stroke="#A78BFA" stroke-width="2"/>
    <text x="868" y="218" fill="#A78BFA" font-family="Inter, Arial" font-size="20" font-weight="700">Bash Monitor</text>
    <text x="868" y="254" fill="#F8FAFC" font-family="Inter, Arial" font-size="18">status · logs · recovery</text>
    <text x="868" y="280" fill="#CBD5E1" font-family="Inter, Arial" font-size="15">systemd restart + cron schedule</text>
  </g>
  <path d="M575 315 V405" stroke="#38BDF8" stroke-width="4" stroke-linecap="round"/>
  <path d="M565 395 L575 415 L585 395" stroke="#38BDF8" stroke-width="4" stroke-linecap="round" stroke-linejoin="round"/>
  <g filter="url(#shadow)">
    <rect x="425" y="430" width="300" height="120" rx="20" fill="#111827" stroke="#F59E0B" stroke-width="2"/>
    <text x="454" y="477" fill="#F59E0B" font-family="Inter, Arial" font-size="20" font-weight="700">Amazon CloudWatch</text>
    <text x="454" y="512" fill="#F8FAFC" font-family="Inter, Arial" font-size="18">metrics and logs visibility</text>
  </g>
  <path d="M990 315 V405 H725" stroke="#38BDF8" stroke-width="4" stroke-linecap="round"/>
  <path d="M745 395 L725 405 L745 415" stroke="#38BDF8" stroke-width="4" stroke-linecap="round" stroke-linejoin="round"/>
</svg>